<svg width="128" height="128" viewBox="0 0 128 128" fill="none" xmlns="http://www.w3.org/2000/svg">
  <rect width="128" height="128" rx="64" fill="url(#paint0_linear)"/>
  <path d="M110.584 64.9142H99.1422C99.1422 41.7651 80.1732 23 56.7725 23C33.6614 23 14.8718 41.3057 14.4075 64.0583C13.9223 87.8583 33.0439 107.828 57.0951 107.828H60.1096C81.7987 107.828 99.9986 91.4651 102.459 70.5256C102.767 68.1871 105.016 66.5085 107.355 66.5085H110.557C112.182 66.5085 113.5 65.2052 113.5 63.5864C113.5 62.0274 112.209 64.9142 110.584 64.9142ZM39.625 65.1766C39.625 68.2063 37.1342 70.6971 34.1045 70.6971C31.0748 70.6971 28.584 68.2063 28.584 65.1766V56.2C28.584 53.1703 31.0748 50.6795 34.1045 50.6795C37.1342 50.6795 39.625 53.1703 39.625 56.2V65.1766ZM59.7617 65.1766C59.7617 68.2063 57.2709 70.6971 54.2412 70.6971C51.2115 70.6971 48.7207 68.2063 48.7207 65.1766V56.2C48.7207 53.1703 51.2115 50.6795 54.2412 50.6795C57.2709 50.6795 59.7617 53.1703 59.7617 56.2V65.1766Z" fill="white"/>
  <defs>
    <linearGradient id="paint0_linear" x1="64" y1="0" x2="64" y2="128" gradientUnits="userSpaceMode">
      <stop stop-color="#534BB1"/>
      <stop offset="1" stop-color="#551BF9"/>
    </linearGradient>
  </defs>
</svg> 